<svg width="185" height="28" viewBox="0 0 185 28" fill="none" xmlns="http://www.w3.org/2000/svg">
<g id="Group 9168">
<path id="Vector" fill-rule="evenodd" clip-rule="evenodd" d="M59.417 2.63541C60.6005 2.58095 60.9778 2.56885 63.9924 2.56885C67.007 2.56885 67.3843 2.58196 68.5667 2.63541C69.7492 2.68887 70.5563 2.87748 71.2625 3.1508C72.002 3.43018 72.6729 3.8669 73.2278 4.43171C73.7928 4.98543 74.2287 5.65513 74.5071 6.39544C74.7815 7.10145 74.9692 7.90832 75.0237 9.08837C75.0782 10.2735 75.0903 10.6507 75.0903 13.6633C75.0903 16.677 75.0771 17.0542 75.0237 18.2373C74.9702 19.4173 74.7815 20.2242 74.5071 20.9302C74.2287 21.6706 73.7921 22.3414 73.2278 22.896C72.6729 23.4608 72.002 23.8965 71.2625 24.1749C70.5563 24.4492 69.7492 24.6368 68.5687 24.6913C67.3843 24.7457 67.007 24.7578 63.9924 24.7578C60.9778 24.7578 60.6005 24.7447 59.417 24.6913C58.2366 24.6378 57.4295 24.4492 56.7233 24.1749C55.9827 23.8965 55.3117 23.46 54.757 22.896C54.1924 22.3419 53.7554 21.6714 53.4767 20.9312C53.2033 20.2252 53.0156 19.4183 52.9611 18.2383C52.9066 17.0532 52.8945 16.676 52.8945 13.6633C52.8945 10.6497 52.9076 10.2725 52.9611 9.09039C53.0146 7.90832 53.2033 7.10145 53.4767 6.39544C53.7558 5.65521 54.1931 4.98474 54.758 4.4307C55.3119 3.8664 55.9822 3.42962 56.7223 3.1508C57.4285 2.87748 58.2356 2.68988 59.416 2.63541H59.417ZM68.4769 4.63242C67.3066 4.57897 66.9555 4.56787 63.9924 4.56787C61.0293 4.56787 60.6782 4.57897 59.5078 4.63242C58.4253 4.68184 57.8381 4.86238 57.4467 5.01468C56.9291 5.2164 56.5588 5.45543 56.1704 5.84374C55.8022 6.20184 55.5189 6.63778 55.3411 7.11961C55.1888 7.51094 55.0082 8.09794 54.9587 9.18015C54.9053 10.3501 54.8942 10.7011 54.8942 13.6633C54.8942 16.6256 54.9053 16.9766 54.9587 18.1465C55.0082 19.2287 55.1888 19.8157 55.3411 20.2071C55.5187 20.6882 55.8022 21.1249 56.1704 21.4829C56.5286 21.8511 56.9654 22.1345 57.4467 22.312C57.8381 22.4643 58.4253 22.6448 59.5078 22.6943C60.6782 22.7477 61.0283 22.7588 63.9924 22.7588C66.9565 22.7588 67.3066 22.7477 68.4769 22.6943C69.5595 22.6448 70.1467 22.4643 70.5381 22.312C71.0557 22.1103 71.4259 21.8712 71.8144 21.4829C72.1826 21.1249 72.4661 20.6882 72.6437 20.2071C72.796 19.8157 72.9766 19.2287 73.0261 18.1465C73.0795 16.9766 73.0906 16.6256 73.0906 13.6633C73.0906 10.7011 73.0795 10.3501 73.0261 9.18015C72.9766 8.09794 72.796 7.51094 72.6437 7.11961C72.4419 6.6022 72.2028 6.23205 71.8144 5.84374C71.4561 5.47568 71.0201 5.1924 70.5381 5.01468C70.1467 4.86238 69.5595 4.68184 68.4769 4.63242ZM62.5749 17.0835C63.3665 17.4129 64.248 17.4574 65.0688 17.2093C65.8896 16.9612 66.5988 16.4359 67.0752 15.7231C67.5516 15.0104 67.7657 14.1544 67.681 13.3014C67.5962 12.4483 67.2178 11.6512 66.6105 11.046C66.2233 10.6592 65.7552 10.363 65.2397 10.1788C64.7243 9.99457 64.1744 9.92687 63.6297 9.98059C63.085 10.0343 62.5589 10.2081 62.0894 10.4894C61.6199 10.7708 61.2187 11.1527 60.9146 11.6077C60.6104 12.0627 60.411 12.5794 60.3306 13.1207C60.2502 13.662 60.2909 14.2143 60.4497 14.738C60.6085 15.2617 60.8814 15.7437 61.2489 16.1492C61.6164 16.5548 62.0693 16.8739 62.5749 17.0835ZM59.9588 9.63099C60.4885 9.10146 61.1174 8.68141 61.8094 8.39483C62.5015 8.10824 63.2433 7.96074 63.9924 7.96074C64.7415 7.96074 65.4833 8.10824 66.1753 8.39483C66.8674 8.68141 67.4963 9.10146 68.026 9.63099C68.5557 10.1605 68.9758 10.7892 69.2625 11.481C69.5492 12.1729 69.6967 12.9145 69.6967 13.6633C69.6967 14.4122 69.5492 15.1538 69.2625 15.8456C68.9758 16.5375 68.5557 17.1661 68.026 17.6957C66.9562 18.7651 65.5053 19.3659 63.9924 19.3659C62.4795 19.3659 61.0286 18.7651 59.9588 17.6957C58.8891 16.6262 58.2881 15.1758 58.2881 13.6633C58.2881 12.1509 58.8891 10.7004 59.9588 9.63099ZM70.9619 8.81C71.0931 8.68622 71.1982 8.53736 71.2709 8.37225C71.3436 8.20713 71.3824 8.02912 71.385 7.84874C71.3876 7.66837 71.354 7.4893 71.2862 7.32214C71.2184 7.15498 71.1177 7.00312 70.9901 6.87557C70.8625 6.74801 70.7106 6.64734 70.5434 6.57952C70.3761 6.51171 70.197 6.47812 70.0166 6.48075C69.8362 6.48338 69.6581 6.52217 69.4929 6.59483C69.3278 6.66749 69.1789 6.77254 69.055 6.90377C68.8142 7.15897 68.6824 7.49795 68.6875 7.84874C68.6926 8.19954 68.8343 8.53453 69.0824 8.78261C69.3306 9.03069 69.6657 9.17232 70.0166 9.17743C70.3675 9.18254 70.7066 9.05074 70.9619 8.81Z" fill="#EFEBE3"/>
<g id="Mask group">
<mask id="mask0_4_1428" style="mask-type:luminance" maskUnits="userSpaceOnUse" x="0" y="1" width="24" height="24">
<path id="svgIDa" d="M0 1.84375L23.1017 1.84375L23.1017 24.9384L-4.05807e-09 24.9384L0 1.84375Z" fill="white"/>
</mask>
<g mask="url(#mask0_4_1428)">
<g id="Group">
<path id="Vector_2" fill-rule="evenodd" clip-rule="evenodd" d="M-2.04037e-09 13.4555C-3.04913e-09 19.1965 4.17081 23.9703 9.6257 24.9384L9.6257 16.5983L6.73799 16.5983L6.73799 13.3911L9.6257 13.3911L9.6257 10.8247C9.6257 7.93785 11.4863 6.3347 14.118 6.3347C14.9516 6.3347 15.8506 6.46268 16.6842 6.59066L16.6842 9.54197L15.2086 9.54197C13.7965 9.54197 13.476 10.2473 13.476 11.1461L13.476 13.3911L16.5562 13.3911L16.0431 16.5983L13.476 16.5983L13.476 24.9384C18.9309 23.9703 23.1017 19.1975 23.1017 13.4555C23.1017 7.06891 17.9038 1.84375 11.5508 1.84375C5.19788 1.84375 -9.18139e-10 7.06891 -2.04037e-09 13.4555Z" fill="#EFEBE3"/>
</g>
</g>
</g>
<path id="Vector_3" d="M116.438 1.84277C110.058 1.84277 104.887 7.01261 104.887 13.3901C104.887 19.7676 110.058 24.9374 116.438 24.9374C122.817 24.9374 127.988 19.7676 127.988 13.3901C127.988 7.01261 122.817 1.84277 116.438 1.84277ZM113.61 18.1762H111.271V10.6512H113.61V18.1762ZM112.426 9.72743C111.687 9.72743 111.21 9.20419 111.21 8.55706C111.21 7.8967 111.702 7.3891 112.456 7.3891C113.211 7.3891 113.673 7.8967 113.687 8.55706C113.687 9.20419 113.211 9.72743 112.426 9.72743ZM122.153 18.1762H119.814V14.006C119.814 13.0353 119.474 12.3761 118.629 12.3761C117.982 12.3761 117.599 12.8224 117.429 13.2518C117.366 13.4045 117.351 13.621 117.351 13.8364V18.175H115.011V13.0509C115.011 12.1115 114.98 11.326 114.949 10.65H116.981L117.088 11.6953H117.135C117.443 11.2045 118.198 10.4804 119.46 10.4804C120.999 10.4804 122.153 11.5113 122.153 13.7269V18.1762Z" fill="#EFEBE3"/>
<g id="Group_2">
<g id="Mask group_2">
<mask id="mask1_4_1428" style="mask-type:luminance" maskUnits="userSpaceOnUse" x="157" y="0" width="28" height="28">
<path id="svgIDa_2" d="M157.785 0H184.916V27.1224H157.785V0Z" fill="white"/>
</mask>
<g mask="url(#mask1_4_1428)">
<g id="Group_3">
<path id="Vector_4" d="M184.351 7.35439C184.198 6.80655 183.898 6.31057 183.485 5.91916C183.061 5.51572 182.54 5.22713 181.973 5.08063C179.85 4.52123 171.344 4.52123 171.344 4.52123C167.799 4.4809 164.254 4.65828 160.73 5.05238C160.162 5.2097 159.643 5.50474 159.217 5.91125C158.799 6.31357 158.496 6.80968 158.338 7.35326C157.957 9.40071 157.773 11.4796 157.786 13.562C157.772 15.6425 157.957 17.7208 158.338 19.7708C158.492 20.3121 158.794 20.806 159.214 21.2049C159.633 21.6038 160.155 21.892 160.73 22.0445C162.881 22.6028 171.344 22.6028 171.344 22.6028C174.895 22.6432 178.444 22.4658 181.973 22.0717C182.54 21.9252 183.061 21.6366 183.485 21.2331C183.898 20.8418 184.197 20.3457 184.35 19.7979C184.74 17.7512 184.93 15.6715 184.916 13.588C184.946 11.4958 184.756 9.40615 184.351 7.35326V7.35439ZM168.64 17.4315V9.69369L175.717 13.5631L168.64 17.4315Z" fill="#EFEBE3"/>
</g>
</g>
</g>
</g>
</g>
</svg>
